<svg width="78" height="23" viewBox="0 0 78 23" fill="none" xmlns="http://www.w3.org/2000/svg">
<g clip-path="url(#clip0_10_493)">
<path d="M11.4568 7.78228C10.9312 7.1557 10.2682 6.65111 9.51619 6.30537C8.70902 5.94956 7.83111 5.77082 6.94483 5.78186C5.84581 5.77197 4.76676 6.0673 3.83466 6.6331C2.91825 7.1835 2.17205 7.9644 1.67506 8.89315C1.13619 9.90637 0.866644 11.0344 0.890944 12.1747C0.868229 13.3514 1.12768 14.5172 1.64877 15.5796C2.1223 16.5268 2.86776 17.3206 3.79523 17.8652C4.77132 18.4178 5.88551 18.6976 7.01491 18.6739C8.38751 18.7171 9.73347 18.2992 10.826 17.4907C11.866 16.6667 12.5759 15.5146 12.8322 14.2347H10.493C10.3402 15.0004 9.90768 15.6866 9.27526 16.167C8.60158 16.6482 7.78039 16.8941 6.94483 16.865C6.2379 16.8833 5.5427 16.6869 4.95607 16.3032C4.37299 15.8924 3.93163 15.3196 3.6901 14.6603C3.45542 14.0557 3.31659 13.4199 3.27833 12.7748H12.8322C12.9336 11.8431 12.8594 10.9013 12.6132 9.9955C12.3904 9.18761 11.9966 8.43379 11.4568 7.78228ZM3.30461 11.2553C3.35691 10.7087 3.49121 10.1724 3.70324 9.66352C3.95796 9.02755 4.39221 8.47433 4.95607 8.06744C5.51756 7.68609 6.18987 7.48923 6.87474 7.50562C7.33287 7.48874 7.78928 7.56909 8.21219 7.7411C8.63509 7.9131 9.01432 8.17262 9.32345 8.50158C9.98249 9.27507 10.3365 10.2513 10.3222 11.2553H3.30461Z" fill="#FB394F"/>
<path d="M24.0288 8.19506C23.6208 7.45806 23.0154 6.84189 22.2766 6.41171C21.5558 5.9918 20.7296 5.77379 19.8892 5.78179C18.8344 5.75755 17.7964 6.04229 16.9104 6.59898C16.0488 7.16831 15.3677 7.95982 14.9436 8.88456C14.4833 9.93722 14.2461 11.0692 14.2461 12.2129C14.2461 13.3566 14.4833 14.4886 14.9436 15.5413C15.3687 16.4677 16.0495 17.2617 16.9104 17.8354C17.7901 18.409 18.83 18.7062 19.8892 18.6866C20.7676 18.695 21.6315 18.4683 22.3861 18.0311C23.1447 17.5815 23.765 16.9421 24.1821 16.1797V18.4525H26.3724V1.60645H24.0288V8.19506ZM23.5907 14.5794C23.3094 15.201 22.8541 15.7333 22.2766 16.1159C21.5645 16.5484 20.7183 16.7233 19.8866 16.6096C19.055 16.496 18.2912 16.1011 17.7296 15.4944C17.0462 14.7283 16.7046 13.643 16.7046 12.2385C16.7046 10.8339 17.0462 9.74432 17.7296 8.96969C18.0534 8.60255 18.4572 8.31008 18.9119 8.11351C19.3665 7.91694 19.8605 7.82122 20.3579 7.83328C21.0166 7.82403 21.6641 7.99832 22.224 8.33551C22.7966 8.69757 23.2522 9.20957 23.5382 9.81242C23.8856 10.5545 24.0534 11.364 24.0288 12.1789C24.0546 12.9981 23.8961 13.813 23.5645 14.5666L23.5907 14.5794Z" fill="#FB394F"/>
<path d="M31.1868 6.01562H28.8213V18.4352H31.1868V6.01562Z" fill="#FB394F"/>
<path d="M30.0037 1.6068C29.5448 1.58357 29.0949 1.73642 28.7509 2.03242C28.5944 2.16945 28.4702 2.3378 28.387 2.52589C28.3039 2.71399 28.2636 2.91735 28.269 3.12201C28.264 3.32849 28.3044 3.53363 28.3875 3.72373C28.4706 3.91383 28.5945 4.08451 28.7509 4.22437C29.0949 4.52037 29.5448 4.67322 30.0037 4.64999C30.2298 4.66292 30.4563 4.63195 30.6699 4.55887C30.8835 4.48579 31.0799 4.37207 31.2478 4.22437C31.4001 4.08206 31.5204 3.91064 31.601 3.7209C31.6817 3.53117 31.721 3.32725 31.7165 3.12201C31.7213 2.91862 31.6821 2.71651 31.6014 2.5288C31.5206 2.34109 31.4002 2.17197 31.2478 2.03242C30.906 1.73853 30.4596 1.58583 30.0037 1.6068Z" fill="#FB394F"/>
<path d="M37.1442 5.10083C37.1215 4.8584 37.154 4.61409 37.2396 4.3853C37.3252 4.15651 37.4616 3.94886 37.6392 3.77715C38.0328 3.47804 38.5243 3.32693 39.0234 3.35153C39.2372 3.35076 39.4509 3.36356 39.663 3.38983C39.8663 3.4124 40.0654 3.46254 40.2544 3.5388V1.70012C39.9964 1.60202 39.7295 1.52791 39.4571 1.4788C39.1481 1.42235 38.8341 1.39526 38.5197 1.39793C38.0153 1.36424 37.5092 1.43105 37.0323 1.59427C36.5555 1.75748 36.1181 2.01365 35.7468 2.34706C35.4061 2.71597 35.1449 3.14744 34.9787 3.61601C34.8124 4.08458 34.7444 4.58077 34.7787 5.07529V6.01591H31.9576V7.98228H34.7787V18.4355H37.1442V7.98228H40.7362V6.01591H37.1442V5.10083Z" fill="#FB394F"/>
<path d="M47.3466 15.5495L43.6056 6.01562H41.0518L46.0937 18.2692L44.2583 22.9596H46.8165L53.2296 6.01562H50.8422L47.3466 15.5495Z" fill="#FB394F"/>
<path d="M62.3672 1.86607V6.4798H64.6012V5.62856L72.7884 10.221L64.6012 14.8092V10.4551H62.3672V18.5759L68.6094 15.0731L75.6883 11.1063L77.2566 10.221L62.3672 1.86607Z" fill="#FB394F"/>
<path d="M64.5838 9.55701V7.38209H61.3159V1.29145L59.0819 0.0401306V7.38209H55.1963V9.55701H59.0819V20.4274L61.3159 19.1718V9.55701H64.5838Z" fill="#FB394F"/>
</g>
<defs>
<clipPath id="clip0_10_493">
<rect width="77" height="23" fill="white" transform="translate(0.5)"/>
</clipPath>
</defs>
</svg>
